<?xml version="1.0" standalone="no"?>
<!DOCTYPE svg PUBLIC "-//W3C//DTD SVG 20010904//EN"
 "http://www.w3.org/TR/2001/REC-SVG-20010904/DTD/svg10.dtd">
<svg version="1.0" xmlns="http://www.w3.org/2000/svg"
 width="1630.000000pt" height="1630.000000pt" viewBox="0 0 1630.000000 1630.000000"
 preserveAspectRatio="xMidYMid meet">
<metadata>
Created by potrace 1.14, written by Peter Selinger 2001-2017
</metadata>
<g transform="translate(0.000000,1630.000000) scale(0.100000,-0.100000)"
fill="#000000" stroke="none">
<path d="M7819 16276 c-2 -2 -67 -7 -144 -10 -77 -4 -158 -9 -180 -11 -22 -2
-71 -7 -110 -10 -138 -12 -320 -34 -420 -50 -38 -6 -253 -41 -305 -50 -14 -2
-50 -9 -80 -15 -30 -6 -68 -14 -85 -16 -51 -9 -306 -70 -455 -110 -30 -8 -62
-16 -70 -18 -290 -73 -860 -280 -1175 -426 -137 -64 -412 -200 -505 -252 -52
-28 -116 -63 -143 -77 -175 -95 -536 -328 -764 -493 -111 -80 -387 -293 -419
-323 -6 -5 -35 -30 -64 -55 -258 -215 -627 -576 -830 -810 -36 -41 -67 -77
-70 -80 -3 -3 -28 -32 -55 -65 -28 -33 -62 -73 -76 -90 -151 -171 -441 -577
-645 -901 -207 -329 -464 -840 -625 -1242 -52 -128 -161 -426 -178 -485 -5
-18 -27 -90 -49 -162 -68 -218 -181 -670 -206 -825 -3 -19 -8 -46 -11 -60 -2
-14 -7 -36 -10 -50 -2 -14 -7 -41 -10 -60 -3 -19 -7 -46 -10 -60 -7 -40 -17
-107 -30 -209 -4 -30 -8 -62 -10 -72 -2 -10 -7 -49 -10 -86 -4 -37 -9 -75 -10
-84 -2 -8 -6 -55 -10 -105 -4 -49 -8 -100 -11 -114 -11 -74 -19 -337 -18 -665
0 -335 3 -423 19 -635 7 -92 22 -238 30 -300 2 -19 7 -57 10 -85 12 -94 37
-266 50 -335 3 -14 7 -41 10 -60 14 -87 78 -388 110 -515 19 -77 37 -149 40
-159 49 -200 189 -623 296 -892 187 -472 494 -1067 728 -1413 9 -13 21 -31 26
-39 73 -113 303 -437 357 -502 16 -19 32 -40 36 -45 19 -27 175 -218 236 -290
141 -164 235 -265 431 -460 211 -211 258 -255 395 -374 121 -105 126 -109 215
-181 44 -35 82 -67 85 -70 4 -5 197 -149 315 -237 123 -91 653 -433 671 -433
2 0 31 -17 66 -37 310 -182 806 -411 1218 -561 117 -43 449 -151 515 -168 6
-2 35 -10 65 -19 30 -9 62 -17 71 -19 8 -3 60 -16 115 -30 141 -36 261 -63
399 -91 104 -20 156 -30 267 -50 51 -9 377 -54 438 -60 36 -4 76 -9 90 -10 14
-2 66 -6 115 -10 50 -4 106 -8 125 -10 221 -23 949 -23 1150 0 19 2 73 6 120
10 129 10 164 13 300 30 19 3 58 7 85 10 42 5 156 22 265 41 119 19 274 49
388 75 75 17 151 33 167 35 17 3 37 7 45 11 8 3 87 24 175 48 216 58 310 86
494 149 249 86 497 181 515 197 6 5 17 9 24 9 8 0 47 15 86 34 39 18 100 46
136 62 85 37 432 211 540 270 723 395 1432 946 2010 1560 57 61 88 95 199 219
308 346 667 846 911 1270 140 241 329 615 414 815 27 63 56 133 66 155 74 168
249 663 276 780 4 17 9 35 13 40 3 6 6 15 7 20 1 6 15 60 32 120 16 61 38 141
47 179 9 38 19 77 21 85 7 29 72 335 77 366 3 17 10 53 16 82 6 29 13 74 17
100 3 26 7 50 9 53 2 3 6 34 10 70 4 36 8 67 10 70 2 3 6 34 10 70 4 36 9 73
10 82 2 9 7 48 10 85 4 37 9 82 11 98 3 29 12 130 19 230 24 334 24 890 0
1165 -2 25 -7 79 -10 120 -3 41 -8 89 -10 105 -2 17 -7 60 -10 97 -3 37 -8 77
-10 90 -3 22 -9 63 -21 153 -15 117 -60 379 -74 435 -5 19 -11 49 -13 65 -3
17 -17 82 -32 145 -14 63 -28 122 -30 130 -92 407 -299 1007 -495 1436 -47
102 -205 419 -246 494 -171 311 -323 555 -531 853 -38 54 -237 317 -271 358
-11 13 -68 82 -127 153 -59 72 -124 148 -144 170 -20 22 -63 69 -96 105 -164
181 -508 513 -705 681 -47 40 -96 82 -110 94 -14 11 -77 62 -140 111 -679 533
-1408 943 -2200 1238 -236 88 -633 213 -800 252 -8 2 -71 17 -140 34 -69 16
-136 32 -150 35 -14 2 -81 16 -150 30 -155 31 -169 34 -250 46 -36 5 -74 11
-85 14 -11 2 -45 7 -75 11 -30 4 -62 9 -71 10 -14 3 -45 7 -164 20 -16 2 -50
6 -75 9 -78 9 -152 16 -235 22 -44 3 -100 8 -125 10 -57 5 -836 15 -841 10z"/>
</g>
</svg>
