<svg version="1.1" id="hnn-pr" xmlns:rdf="http://www.w3.org/1999/02/22-rdf-syntax-ns#" xmlns:cc="http://creativecommons.org/ns#" xmlns:dc="http://purl.org/dc/elements/1.1/" xmlns:svg="http://www.w3.org/2000/svg" xmlns="http://www.w3.org/2000/svg" xmlns:xlink="http://www.w3.org/1999/xlink" x="0px" y="0px" viewBox="10 -25 120 111.7" style="enable-background:new 10 -25 120 111.7;" xml:space="preserve">
<style>
#path2656, #path2698 { fill: none;
    stroke: #6022FF;
    strokeWidth: 0.5px;
    strokeLinecap: round;
    strokeLinejoin: round;
    stroke-miterlimit: 10; }</style>
        <path id="path2656" d="M32,89.3c0-1.2,0.4-2.3,0.9-2.3s0.8,0.7,0.8,1.6 M63.5,89.9c-1.3-0.6-0.1-0.7,3.8-0.3
      	c3.9,0.4,6.2,0.2,7.3-0.6c1.1-0.9,1.5-0.9,1.5-0.1 M101,89 M47.1,88.8c0-1.5,0.4-2.8,0.9-2.8h1.8c0.4,0,0.8,0.4,0.8,1
      	s-0.4,0.9-0.9,0.8c-0.5-0.1-1.3,0.7-1.7,1.8 M78.5,89.9c-1.4-0.6-0.8-0.7,2-0.3 M56.7,88.3c0.7-0.3,2-0.3,3,0c1,0.3,0.4,0.5-1.2,0.5
      	C56.9,88.8,56.1,88.6,56.7,88.3z M83.3,88.4c0.3-0.3,1.2-0.4,1.9-0.1c0.8,0.3,0.6,0.6-0.6,0.6C83.5,89,82.9,88.7,83.3,88.4z
      	 M88.9,86.6c1.9-2,2.2-3.1,1.7-6.3c-0.3-2.1-0.3-4.3,0.1-4.9c0.4-0.6,4.6-3.7,9.3-6.9c11.3-7.8,12-8.4,12-11.5c0-1.5,0.5-3.1,1-3.7
      	c1.8-1.8-0.1-4.3-6.8-9.4c-3.8-2.9-5.8-4.9-4.8-4.9c1,0,4.4,2.1,7.6,4.8c4.9,3.9,5.9,5.3,5.9,7.9c0,1.8-0.4,3.5-0.9,3.8
      	c-0.5,0.3-0.7,1.2-0.4,2c1,2.7-1.8,5.7-10.4,11.2c-10.6,6.8-11.3,7.6-10.6,12.4c0.5,3,0.2,4.2-1.5,5.8
      	C88.2,89.8,86.1,89.6,88.9,86.6z M36.4,86.1c0.4-0.6,1.9-1.1,3.4-1.1c5.2,0,6.9-1.1,8.1-4.8c1.2-3.6,1.1-3.7-3.6-8
      	c-2.6-2.4-7.1-5.9-10-7.9c-3.5-2.3-5.5-4.4-5.8-6.2c-0.3-1.5-1.1-3.7-1.7-4.9c-1.9-3.8,0.2-7.1,7.1-11.5c3.5-2.2,6.6-3.6,7-3.2
      	c0.4,0.4,0.1,1-0.6,1.2c-2.5,0.9-10.6,6.8-11.6,8.5c-0.8,1.3-0.7,2.3,0.2,3.7c0.7,1.1,1.2,3.1,1.2,4.4c0,1.7,1.5,3.4,5.8,6.4
      	c3.2,2.2,7.9,6,10.6,8.3c3.9,3.5,4.7,4.7,4.2,6.6c-0.7,2.9,0.5,3.1,2.2,0.3c0.7-1.1,1.8-2,2.5-1.9c0.9,0.1,0.9,0.2,0,0.6
      	c-0.7,0.3-0.9,1.2-0.6,2.1c0.4,1.1,0.2,1.4-0.6,0.9c-0.7-0.4-1.2-0.1-1.2,0.7c0,1-0.7,1.3-2,0.9c-1.5-0.4-2,0-2,1.5
      	c0,1.7-0.8,2.2-4.8,2.7c-2.6,0.4-5.6,0.9-6.6,1.2C36.4,87,36,86.8,36.4,86.1L36.4,86.1z M55,85c-0.8-0.5-1-1-0.5-1s1.7,0.4,2.5,1
      	s1,1,0.5,1S55.8,85.5,55,85z M84.4,78.8c-1.9-2.1-1.9-2.1,0.3-1C86,78.5,87,79.5,87,80C87,81.5,86.5,81.2,84.4,78.8z M88.9,74
      	c1.9-1.6,3.6-2.7,3.9-2.5c0.6,0.6-5.1,5.5-6.3,5.5C85.9,76.9,87,75.6,88.9,74z M56.7,75.3C56.3,75,56,74.2,56,73.6
      	c0-0.6,0.5-0.4,1,0.4c0.7,1.1,1,1.1,1,0.2c0-0.7,0.5-1,1-0.7c0.6,0.3,0.8,1,0.4,1.6C58.8,76.2,57.6,76.3,56.7,75.3z M80,72.5
      	c0-1.9,0.4-3.5,0.9-3.5c1.1,0,2.3-3.3,2.6-7.4c0.3-3.6,1.7-5,7.6-7.5c4-1.7,4.8-1.8,5.2-0.5c0.4,1.1,1,1.2,2.5,0.4
      	c2-1.1,7.8-1.5,6.8-0.5c-0.3,0.3-2.4,1-4.6,1.5c-5.1,1.1-12.3,8.3-11.5,11.4c0.5,1.9,0.4,1.9-0.9,0.3c-0.8-1-1.8-1.4-2.3-1
      	c-0.5,0.4,1-1.4,3.3-4c5-5.5,5.4-7.2,1.5-5.6c-3.5,1.5-6.3,4.5-6.3,6.9c0,1-0.9,3.5-2,5.4c-2.6,4.7-2.6,6.5,0.2,5.7
      	c1.5-0.4,1.9-0.2,1.4,0.6C84.2,75.5,83,76,81.9,76C80.4,76,80,75.3,80,72.5z M52,71.5c-0.7-0.8-0.8-1.5-0.2-1.5
      	c0.5,0,1.6,0.7,2.2,1.5c0.7,0.8,0.8,1.5,0.2,1.5C53.7,73,52.7,72.3,52,71.5z M48,71c0-0.6,0.5-1,1-1s1,0.4,1,1s-0.5,1-1,1
      	S48,71.5,48,71z M86,71.6c0-0.3,0.9-1,2-1.6s2-0.8,2-0.6s-0.9,1-2,1.6S86,71.8,86,71.6z M54.1,68.1c-0.6-1.1-0.7-2.3-0.2-2.6
      	c0.5-0.3,1.1,0.4,1.5,1.6C56.1,70.2,55.4,70.7,54.1,68.1z M54.2,62.9c-2.4-5.2-3.9-7.1-5.8-7.5c-1.4-0.3-2.5-1-2.5-1.4
      	c0-1,4-0.1,5.8,1.3c2.1,1.6,6.3,10.6,6,12.7C57.6,69.2,56.3,67.3,54.2,62.9z M96.9,67c1.3-1.1,2.9-2,3.5-1.9c0.6,0,0.1,0.9-1.2,2
      	c-1.3,1.1-2.9,2-3.5,1.9C95,68.9,95.6,68,96.9,67z M49.6,61c-3.7-4.4-3.3-5.8,0.5-1.5c1.7,2,2.9,3.8,2.6,4.1
      	C52.5,63.9,51.1,62.7,49.6,61z M37.1,61.1c-0.8-0.5-1-1.4-0.6-2.1c0.6-0.9,0.3-1.1-1-0.6c-1.5,0.6-1.6,0.5-0.5-0.8
      	c0.7-0.8,0.9-1.5,0.5-1.5s-0.2-0.7,0.5-1.5c0.7-0.9,2.8-1.5,4.9-1.4l3.6,0.1l-4.5,1c-4.2,1-4.4,1.1-2,2c2.3,0.9,2.4,1,0.6,2
      	c-1.5,0.8-1.6,1.2-0.5,1.9c0.7,0.5,1.1,1.1,0.8,1.3C38.7,61.7,37.8,61.5,37.1,61.1z M41.7,60.3c-0.9-0.9-0.8-2.3,0.2-2.3
      	c0.5,0,0.8,0.7,0.8,1.5C42.7,61.2,42.6,61.3,41.7,60.3z M82,58.1c0-0.5,0.4-1.2,1-1.6c0.6-0.3,0.7,0.1,0.4,0.9
      	C82.7,59.2,82,59.5,82,58.1z M102,58.1c0-1.7,1.8-2.1,2.4-0.6c0.3,0.9,0,1.5-0.9,1.5C102.7,59,102,58.6,102,58.1z M106.5,58
      	c-0.3-0.6-0.1-1,0.4-1s1.1,0.4,1.1,1s-0.2,1-0.4,1S106.8,58.5,106.5,58z M65.4,52.9c-0.4-0.6-0.3-1.4,0.3-1.8s1.3-1.5,1.6-2.5
      	c0.8-2.1,4.8-2,5.5,0.1c0.3,1-0.3,1.1-2.4,0.6c-2.6-0.6-2.7-0.5-1.5,1c1.2,1.4,1.1,1.7-0.5,1.7c-1.6,0-1.6,0.2-0.4,1
      	c1.3,0.8,1.3,1-0.2,1C66.9,54,65.8,53.5,65.4,52.9z M36.3,50.4c0.3-0.3,1.2-0.4,1.9-0.1c0.8,0.3,0.6,0.6-0.6,0.6
      	C36.5,51,35.9,50.7,36.3,50.4z M100.5,48.9c-0.9-1.5,0.1-2.3,2.1-1.6c0.9,0.3,1.3,1.1,1,1.6C102.7,50.3,101.3,50.3,100.5,48.9z
      	 M72.2,47c-1.8-1.5-2.2-2.7-1.9-5.2l0.4-3.3l0.2,3.2c0.1,1.8,0.6,3.3,1.1,3.3c0.5,0,1.4,0.9,2,2C75.3,49.4,75.1,49.4,72.2,47z
      	 M89.3,47.4c0.3-0.3,1.2-0.4,1.9-0.1c0.8,0.3,0.6,0.6-0.6,0.6C89.5,48,88.9,47.7,89.3,47.4z M66.7,45.9c0.8-0.8,0.9-1.8,0.2-3.1
      	c-0.6-1.2-0.6-1.8,0-1.8c0.5,0,1.2-0.8,1.4-1.8c0.3-1,0.5,0.1,0.6,2.4c0.1,3.1-0.3,4.3-1.6,4.8C65.9,47,65.8,46.9,66.7,45.9z
      	 M82,46.2c0-0.5,0.7-0.8,1.5-0.8s1.5,0.4,1.5,0.8c0,0.5-0.7,0.8-1.5,0.8S82,46.6,82,46.2z M50,43c0-1.9,0.3-2.1,1.2-1.2
      	s0.9,1.5,0,2.4S50,44.9,50,43z M74.9,41.6c1.2-1.5,1.2-1.6-0.3-1.1c-1.2,0.4-1.5,0.2-1.1-0.8c0.7-1.8,3.2-1.9,3.9-0.1
      	c0.3,0.7-0.5,1.8-1.7,2.5C73.7,43.2,73.6,43.2,74.9,41.6z M53.5,41.1c-0.3-0.5-0.1-1.2,0.4-1.6c0.6-0.3,1,0.1,1,0.9
      	C55,42.2,54.4,42.5,53.5,41.1z M46.1,38.6c0-1.1,0.2-1.6,0.5-1.3s0.4,1.2,0.1,1.9C46.4,40,46.1,39.7,46.1,38.6z M91,39
      	c0-0.5,0.2-1,0.4-1s0.7,0.5,1.1,1c0.3,0.5,0.1,1-0.4,1S91,39.5,91,39z M91.5,34.9C84.1,30,81,26.6,81,23.5c0-1.4,2-4.8,4.8-8.2
      	c4.7-5.6,4.8-6,4.7-11.9c-0.2-6.1-1.5-9.3-5.9-14.3c-1.6-1.9-1.7-2.2-0.4-1.7C86.4-11.6,93-3.6,93-1.8c0,0.8-0.6,1.9-1.2,2.6
      	c-1,1-1,1.6,0,3.2c2,3.2,1.5,4.9-3.9,12.2c-6.3,8.4-6,9.5,3.6,16.3c3.6,2.6,6.6,5.1,6.6,5.6C98,39.3,98.3,39.4,91.5,34.9z
      	 M45.1,35.6c1.5-1.3,6.9-3.5,6.9-2.8c0,0.9-4.4,3.2-6.2,3.2C45.2,36,44.9,35.8,45.1,35.6z M70.3,31.5c0-0.8,1.3-1.7,2.8-2.1
      	s3.1-1,3.4-1.5c0.3-0.5,1.1-0.9,1.7-0.9c1.1,0-6.2,5.9-7.3,6C70.6,33,70.3,32.3,70.3,31.5z M54.7,29.7c4.9-5.4,4.8-6.1-1.8-12.7
      	c-5.2-5.1-6-6.4-5.3-8.3c0.4-1.2,0.7-4.5,0.7-7.2c-0.1-3.9,0.5-5.8,2.7-9.1c1.6-2.3,3.6-4.7,4.4-5.5c0.9-0.7,1.6-2.2,1.6-3.2
      	c0-1,1.3-3.2,2.9-4.9c2.6-2.7,3.4-3,9.6-3c6.1,0,6.9,0.2,8.9,2.7c2.5,3.1,3.9,6.3,2.8,6.3c-0.4,0-1.5-1.3-2.5-3
      	c-2.4-4.1-5.1-5.3-10.4-4.7C63.1-22.1,58-18,58-14.3c0,1.3-0.3,2.3-0.8,2.3S55-9.8,53.1-7.1c-2.8,4.1-3.3,5.5-2.7,8.4
      	c0.4,2,0.1,4.6-0.6,6.2c-1.2,2.6-1,2.9,5,8.5c6.4,5.9,7.3,7.9,4.7,10c-0.8,0.7-1.5,1.7-1.5,2.3c0,1.1-3,3.7-4.4,3.7
      	C53.1,32,53.6,31,54.7,29.7L54.7,29.7z M66.5,30c-0.3-0.5-0.1-1,0.4-1s1.1,0.5,1.1,1s-0.2,1-0.4,1S66.8,30.5,66.5,30z M64.9,23.3
      	c-2.1-1.9-3.9-4-3.9-4.6c0-0.6,1.5,0.4,3.3,2.1c4.2,4.1,9.2,4.4,12.7,0.7c1.3-1.4,2.8-2.5,3.4-2.5c2.1,0-4.3,5.3-7.9,6.6
      	C68.9,26.8,68.7,26.7,64.9,23.3z M66.7,21.4c-2-1.1-2.7-2.2-2.5-3.6c0.2-1.2,0.8-2.2,1.3-2.3s0.7,0,0.3,0.3c-1.6,0.9-0.6,3,1.8,4.1
      	c3.6,1.6,4.8,1.5,7.9-1c2.7-2.1,2.7-2.1,1.7-0.1c-0.8,1.5-6.4,4.7-7.5,4.2C69.5,22.9,68.2,22.2,66.7,21.4z M58.5,17
      	c-0.3-0.5-0.1-1,0.4-1s1.1,0.5,1.1,1s-0.2,1-0.4,1S58.8,17.5,58.5,17z M84,14.1c0-0.5,0.4-1.3,1-1.6s1-0.2,1,0.4s-0.4,1.3-1,1.6
      	S84,14.7,84,14.1z M52,12c0-0.5,0.2-1,0.4-1s0.7,0.5,1.1,1s0.1,1-0.4,1S52,12.5,52,12z M69.2,8c0-1.9,0.2-2.7,0.5-1.8
      	c0.3,1,0.3,2.5,0,3.5C69.4,10.7,69.2,9.9,69.2,8z M54.9,8.3C53.6,6.8,53.7,6.8,56,8c3.4,1.7,3.6,2,1.8,2C56.9,10,55.6,9.3,54.9,8.3z
      	 M71.2,6.5c0-1.6,0.2-2.4,0.5-1.8s0.3,2,0,3C71.4,8.7,71.2,8.1,71.2,6.5z M85.7,6.9c0.7-0.7,1.5-1,1.8-0.7c0.3,0.3-0.2,0.9-1.2,1.2
      	C84.9,8,84.8,7.9,85.7,6.9z M76,3.8c0-0.9,0.7-1.8,1.6-2.2c2.5-0.9,2.6-0.1,0.4,1.9C76.3,5,76,5.1,76,3.8z" style="stroke-dashoffset: 0px; stroke-dasharray: 1335.44, 1335.44;"></path>
        <path id="path2698" d="M46,86.4c0-0.8,0.4-1.3,1-0.9c0.6,0.4,0.6,1.5,0.1,2.9 M54,87.1c-4.2-0.6-4.5-0.8-4.8-3.9
      	c-0.2-1.8,0.3-4,1-4.9c1.1-1.3,0.5-2.3-4-6.4c-2.9-2.7-7.7-6.5-10.7-8.5c-3.7-2.4-5.7-4.5-6-6.3c-0.3-1.5-1-3.6-1.6-4.8
      	c-1.3-2.8,0.3-5.9,4.2-7.9c3.4-1.8,3.9-1,1,1.5c-3.6,3.1-1.6,4.6,6,4.7c5.6,0.1,6.8-0.2,6.4-1.3C45,48.6,45.4,48,46.4,48
      	c0.9,0,1.6,0.8,1.6,2c0,2.6,1.7,2.6,2.5-0.1c0.4-1.2,1-1.7,1.3-1.3c0.4,0.5,2,1.6,3.6,2.6c2.8,1.6,3,2,2.9,7.8
      	c0,4.3,0.3,6.1,1.3,6.1c0.7,0,1.3-0.6,1.3-1.3c0-0.8,0.3-0.7,1,0.3c0.7,1.2,0.9,0.9,0.7-1c-0.1-1.4,0.2-2.6,0.8-2.8
      	c1.4-0.5,2.7-3,2.1-4.1c-0.3-0.5,0.4-1.1,1.4-1.4s2-0.1,2,0.4c0,0.5,0.8,0.8,1.7,0.7c1.3-0.2,1.8,0.4,1.8,2.5c0,1.5-0.3,3.1-0.8,3.3
      	c-0.5,0.3-0.3,1.2,0.3,1.9c0.6,0.8,0.7,1.4,0.2,1.4c-0.9,0-2.4-2.5-3.8-6.5c-0.6-1.6-0.9-1.1-1.8,2.5c-0.9,3.4-1.6,4.5-3.1,4.5
      	c-1.1,0-2.6,0.4-3.3,0.8c-1.4,0.9-4.1-1.8-4.2-4.1c0-0.7-0.5-1.3-1-1.3s-1-0.6-1-1.3c0-2.3-3.9-5-7.8-5.5c-8.4-1-13.6-0.3-14,2.1
      	c-0.4,2,1.7,3.3,3.1,1.9c1.6-1.6,2.8-1.4,2.1,0.4C36.6,60.4,39.3,63,42,63c1.2,0,1.9,0.4,1.5,1c-0.3,0.6-1.2,0.7-1.8,0.4
      	c-0.6-0.4-0.2,0.3,1,1.5C43.9,67,45.4,68,46,68s1,0.4,1,1c0,0.5,1.6,1.6,3.5,2.4c3.3,1.4,5.1,3.1,2,1.9c-1.1-0.4-1.3-0.1-0.9,1
      	c0.3,0.9,1.2,1.6,2,1.6c2.3,0,1.6,1.7-1,2.4c-2.3,0.6-2.4,0.8-1,3.3c0.8,1.6,3.1,3.4,5.7,4.4C61.7,88,61.3,88.1,54,87.1L54,87.1z
      	 M87,86.7c0-0.7,0.7-2.1,1.5-3.2c2-2.6,1.8-3.6-0.6-3.6c-1.1,0-1.8-0.4-1.4-1s0.1-1-0.6-1s0.8-1.6,3.2-3.5s5-3.5,5.6-3.5
      	c0.7,0,1.2-0.3,1-0.8c-0.4-1.4,6.4-7.3,7.6-6.6c0.6,0.4,0.8,0.3,0.5-0.1c-0.8-0.9,2-4.1,2.9-3.2c0.9,0.9,3.1-1.7,3.5-4
      	c0.2-1.1-0.2-2.7-1-3.6c-1.1-1.4-1-1.5,0.8-1c2.6,0.7,2.6-0.7,0.1-3.5c-2.9-3.2-2.4-3.7,0.9-1.1c2.9,2.3,4,6.1,2,7.4
      	c-0.6,0.4-1,1.4-0.9,2.3c0.1,0.9,0.1,2.2,0.1,2.9c-0.1,1.5-9.3,8.4-15.1,11.4c-5.6,2.9-7.7,6.1-6.1,9.5c1,2.1,0.9,3-0.4,5
      	C88.8,88.2,87,88.8,87,86.7z M60.6,84.5c-1.1-0.8-1.7-1.7-1.5-1.9S60.6,83,62,84s2,1.9,1.5,1.9C63,85.9,61.6,85.3,60.6,84.5z
      	 M61,77.6c0-0.2,0.5-0.7,1-1.1s1-0.1,1,0.4S62.5,78,62,78S61,77.8,61,77.6z M82.4,62.4c0.3-1,0.7-3.3,0.8-5.1c0.1-1.8,0.4-3,0.7-2.8
      	c0.2,0.2,1.1-0.1,1.9-0.7c1.6-1.4,18.6-2.2,17.8-0.9c-0.3,0.5-1.9,1.1-3.5,1.4c-1.6,0.3-3.1,1.4-3.4,2.4c-0.4,1.4-0.5,1.3-0.6-0.5
      	c-0.1-2.8-2.6-2.9-7.7-0.5c-2.5,1.2-3.8,2.6-4.2,4.5c-0.3,1.5-1,3.1-1.5,3.4C82.2,64,82,63.5,82.4,62.4z M41.6,59.6
      	c0.3-0.9,1-1.6,1.6-1.6c1.3,0,0.5,2.3-1,2.8C41.5,61,41.2,60.6,41.6,59.6z M46,60c0-0.6,0.5-1,1-1s1,0.4,1,1s-0.5,1-1,1
      	S46,60.6,46,60z M101.3,59.4c0.3-0.3,1.2-0.4,1.9-0.1c0.8,0.3,0.6,0.6-0.6,0.6C101.5,60,100.9,59.7,101.3,59.4z M59,57
      	c0-0.6,0.7-1,1.5-1s1.5,0.4,1.5,1s-0.7,1-1.5,1S59,57.6,59,57z M69.3,51.3c-1.3-0.5-1.8-3.3-0.5-3.3c0.4,0,1.4,0.4,2.2,1
      	C72.7,50.1,71.2,52,69.3,51.3z M75.5,49c-0.3-0.6-0.1-1,0.4-1s1.1,0.4,1.1,1s-0.2,1-0.4,1S75.8,49.6,75.5,49z M101,49
      	c0-0.6,0.4-1,1-1s1,0.4,1,1s-0.4,1-1,1S101,49.6,101,49z M51.1,45.3C51,42.8,51.7,42.5,54,44c1.3,0.8,1.3,1-0.2,1
      	c-0.9,0-1.9,0.6-2.2,1.3C51.4,46.9,51.1,46.5,51.1,45.3z M37,42.1c0-0.9,3.1-3.1,4.4-3.1c0.3,0,0.6,0.8,0.6,1.7c0,0.9-0.3,1.4-0.6,1
      	c-0.3-0.3-1.5-0.2-2.5,0.4C37.6,42.7,37,42.7,37,42.1z M102,42c-0.9-0.6-1-1-0.3-1c0.7,0,1.5,0.4,1.8,1
      	C104.3,43.2,103.9,43.2,102,42z M90.7,37.4c-1.1-1.1,0.3-2.3,1.8-1.7c0.8,0.3,1.2,1,0.9,1.5C92.8,38.2,91.6,38.3,90.7,37.4z
      	 M50.4,34.5c1.1-0.8,2.2-1.2,2.5-0.9c0.6,0.6-1.9,2.4-3.4,2.4C49,35.9,49.4,35.3,50.4,34.5z M84.5,31c-1-1.1-1.4-2-0.8-2
      	s1.8,0.9,2.8,2s1.4,2,0.8,2S85.5,32.1,84.5,31z M67.8,29.6c-1.5-0.8-4-1.6-5.5-1.8c-2.4-0.3-2.7-0.7-2.4-3.1
      	c0.3-2.3-0.8-3.8-5.9-8.7c-6.1-5.8-6.2-6-4.6-8.4c1.2-1.9,1.4-3.2,0.6-5.9c-0.9-3.1-0.6-4,2.1-8.1c3.5-5.2,5-6.4,5-4.2
      	C57-9.7,57.7-9,58.5-9S60-8.4,60-7.8c0,0.9,0.2,0.9,0.9-0.1c0.6-1,1.4-0.7,3,1.4l2.2,2.8l-0.2-3.9c-0.1-2.2-0.7-4.3-1.3-4.6
      	c-0.6-0.4-0.7-1-0.3-1.4c0.4-0.4,1.4,0.1,2.1,1.2c4.3,5.9,4.3,6,6.4,4.7c1.1-0.7,2.2-0.9,2.5-0.7c0.9,0.9-0.4,3.4-1.4,2.8
      	C73.4-5.9,73-5.4,73-4.5c0,2.4,2.3,1.3,3.8-1.9c1-2.1,1.9-2.6,3.4-2.2c1.2,0.3,2.7,0,3.5-0.6c1.2-1,2-0.5,4.3,2.3
      	c2.6,3.1,2.8,4,2.3,8.1c-0.4,3-0.2,4.9,0.5,5.3c1.8,1.1,1.4,1.8-4,8.1c-4.4,5.2-5,6.4-4.7,9.7c0.3,3.4,0.1,3.7-1.8,3.2
      	c-1.2-0.3-2.8,0.1-3.7,1C74.4,30.7,70.8,31.2,67.8,29.6z M79.5,19.9c2.2-2.3,5.5-5.8,7.3-7.7c5-5.4,3.6-8.7-1.9-4.4
      	C83.4,9,81.8,9.5,80.6,9c-1.8-0.7-1.8-0.7,0.3-1.3c1.5-0.4,2.2-1.2,1.9-2.4c-0.2-1,0.1-1.7,0.7-1.7s2.1-0.7,3.5-1.8l2.5-2L84,0.5
      	c-8.3,0.9-10.8,5-7.8,13.3c2.1,5.9-2.7,9.4-9.1,6.7c-3.4-1.4-3.9-2.6-1.8-4.3c1-0.8,1.2-2.1,0.6-4.6c-0.4-2-0.4-3.5,0.1-3.5
      	C66.6,8,67,6.9,67,5.6c0-1.9-0.7-2.5-3.1-3C58.3,1.5,55,1.9,55,3.6c0,0.9,0.5,1.3,1,0.9s1-0.1,1,0.5s0.5,0.8,1,0.5s1-0.2,1,0.2
      	s1,1.3,2.3,1.8s2.1,1.4,1.8,2c-0.6,1.4-4,0.7-7.8-1.6c-2-1.2-3.4-1.6-3.8-0.9c-0.8,1.4,0.3,5,1.6,5c0.6,0,3.8,2.7,7.2,6.1
      	c8.8,8.7,9.4,9.1,12.6,7.4C74.3,24.8,77.3,22.3,79.5,19.9z M58,13.1c0-0.6,0.5-1.1,1-1.1s1,0.2,1,0.4s-0.5,0.7-1,1.1
      	S58,13.6,58,13.1z M72.3,9c-0.5-5.7-1.1-7.2-2.3-6.5c-0.5,0.3-0.8,3.4-0.6,6.8c0.5,7.6,0.3,7.1,2,5.5C72.3,13.9,72.6,11.9,72.3,9z
      	 M82-6c0-0.5-0.5-1-1.1-1s-0.8,0.5-0.4,1s0.8,1,1.1,1S82-5.4,82-6z M58-12c0-0.6,0.2-1,0.4-1s0.7,0.4,1.1,1s0.1,1-0.4,1
      	S58-11.4,58-12z M58-15.9c0-1.1,0.5-2.1,1-2.1s1,0.6,1,1.4c0,0.8-0.5,1.7-1,2.1S58-14.8,58-15.9z M78-16c0-0.6-0.9-2-2-3.2
      	c-1.6-1.8-2.2-1.9-2.9-0.8c-0.5,0.8-1.4,1-2.1,0.6c-0.9-0.6-0.9-1,0.1-1.6c0.9-0.6,0.5-0.9-1.4-0.9C68-22,67-21.5,67-20.5
      	c0,0.8-0.4,1.5-1,1.5s-1-0.5-1-1.1c0-0.8-0.5-0.7-1.5,0.1c-0.8,0.7-1.2,1.7-0.9,2.3c0.3,0.6,0,0.8-0.7,0.6c-2.8-0.9-1.9-2.9,2.3-4.9
      	c5.2-2.5,8.1-2.1,12.6,1.7c3,2.5,4.1,5.4,2.1,5.4C78.4-15,78-15.5,78-16z" style="stroke-dashoffset: 0px; stroke-dasharray: 1064.3, 1064.3;"></path>
      </svg>